<?xml version="1.0" standalone="no"?>
<!DOCTYPE svg PUBLIC "-//W3C//DTD SVG 20010904//EN"
 "http://www.w3.org/TR/2001/REC-SVG-20010904/DTD/svg10.dtd">
<svg version="1.0" xmlns="http://www.w3.org/2000/svg"
 width="526.000000pt" height="356.000000pt" viewBox="0 0 526.000000 356.000000"
 preserveAspectRatio="xMidYMid meet">

<g transform="translate(0.000000,356.000000) scale(0.100000,-0.100000)"
fill="#000000" stroke="none">
<path d="M1902 2749 c-46 -10 -82 -46 -167 -174 -69 -105 -102 -149 -294 -403
-99 -131 -118 -141 -276 -149 -236 -12 -345 69 -345 258 0 65 4 85 31 138 55
110 187 223 318 272 45 17 73 20 148 17 76 -2 89 -1 80 11 -8 10 -36 12 -113
9 -98 -3 -105 -5 -200 -52 -78 -39 -114 -64 -172 -121 -116 -117 -153 -229
-117 -360 25 -95 81 -154 172 -184 94 -31 182 -37 267 -17 38 9 71 14 74 12 2
-3 -33 -65 -78 -138 -85 -137 -250 -357 -330 -439 l-45 -46 -100 -13 c-216
-26 -271 -53 -339 -171 -34 -60 -34 -100 2 -140 l28 -31 69 35 c85 43 161 99
280 204 50 44 100 85 112 91 12 7 118 21 235 32 322 30 373 38 355 57 -8 7
-385 -22 -485 -38 -35 -5 -68 -7 -73 -3 -7 4 1 19 19 38 60 63 202 255 304
411 58 88 116 169 129 181 13 11 59 42 102 68 187 111 322 236 402 371 65 109
100 195 91 228 -9 36 -44 55 -84 46z m52 -45 c12 -31 6 -55 -34 -136 -54 -109
-123 -199 -216 -282 -89 -79 -237 -180 -255 -174 -6 2 22 47 67 107 110 143
223 300 264 366 55 89 102 135 137 135 19 0 33 -6 37 -16z m-1135 -1371 c-1
-10 -124 -115 -198 -169 -68 -49 -144 -94 -159 -94 -23 0 -44 47 -36 84 7 42
79 127 121 145 72 30 274 55 272 34z"/>
<path d="M2957 2290 c-86 -22 -154 -72 -191 -141 -32 -58 -29 -87 12 -129 33
-32 123 -47 169 -28 27 11 25 12 -37 20 -85 12 -112 26 -123 65 -9 28 -5 38
27 82 50 68 135 111 219 111 128 0 230 -52 268 -134 36 -79 19 -213 -34 -280
-27 -33 -43 -29 -52 14 -6 28 -10 30 -51 30 -53 0 -71 -8 -144 -68 -61 -50
-116 -79 -127 -69 -4 4 3 28 15 52 39 80 26 84 -41 14 -82 -87 -141 -109 -98
-38 22 36 28 79 11 79 -5 0 -28 -27 -50 -61 -36 -52 -89 -99 -113 -99 -4 0 -4
17 -1 38 11 69 -33 89 -114 52 -38 -17 -50 -18 -89 -8 l-46 11 -44 -51 c-25
-29 -49 -52 -54 -52 -12 0 -11 34 2 64 10 21 8 27 -22 54 l-34 31 -40 -22
c-22 -13 -56 -46 -78 -77 -35 -50 -85 -92 -88 -73 -1 4 -2 30 -3 57 -1 44 -4
52 -32 68 l-30 18 -116 -59 c-129 -66 -203 -85 -223 -57 -11 15 -13 15 -18 -4
-5 -21 -31 -27 -42 -9 -4 5 -4 22 0 36 5 20 10 24 28 20 21 -6 21 -6 3 8 -24
18 -28 18 -70 1 -53 -22 -113 -82 -120 -120 -8 -44 7 -83 39 -98 35 -16 106
19 137 67 17 25 34 38 63 45 22 6 71 21 110 35 38 13 71 23 72 21 4 -4 -83
-163 -107 -196 -14 -19 -32 -27 -82 -35 -67 -11 -80 -32 -15 -27 22 2 37 -1
37 -7 0 -22 -146 -215 -220 -292 -85 -88 -151 -125 -202 -114 -23 6 -34 17
-50 52 -34 77 -9 133 75 168 l37 15 0 -31 c0 -33 16 -36 34 -6 12 19 1 43 -25
60 -20 13 -107 -30 -133 -65 -30 -41 -33 -133 -7 -176 36 -56 87 -65 166 -28
77 36 144 103 275 277 78 102 129 160 143 163 91 20 152 28 377 50 470 47
1155 109 1405 127 214 15 720 15 810 0 127 -22 197 -68 266 -174 67 -103 85
-241 50 -379 -39 -152 -138 -297 -273 -398 -95 -72 -174 -111 -298 -146 l-93
-27 -120 18 c-119 19 -120 19 -133 52 -29 69 -10 153 47 209 31 30 47 38 88
42 42 4 51 2 51 -12 0 -8 -19 -26 -42 -38 -38 -20 -40 -23 -20 -26 13 -2 40 5
60 16 44 22 54 58 24 85 -17 15 -26 16 -68 7 -137 -31 -206 -138 -174 -271 16
-65 36 -77 157 -96 118 -18 199 -12 303 23 267 90 485 332 536 597 16 80 16
95 2 181 -19 114 -45 169 -121 251 -93 102 -175 119 -582 120 -375 0 -711 -21
-1395 -89 -80 -8 -228 -22 -330 -31 -194 -17 -390 -40 -465 -54 -24 -5 -47 -6
-50 -3 -5 6 90 189 110 210 10 11 13 8 18 -17 6 -26 11 -30 53 -37 73 -11 196
1 248 24 41 19 47 19 55 5 14 -27 85 -11 138 31 26 20 51 36 56 36 9 0 8 -8
-9 -67 -11 -41 21 -26 54 26 29 45 95 91 109 77 3 -3 -3 -28 -13 -56 -15 -42
-16 -53 -5 -59 16 -11 52 -1 109 28 24 12 47 19 52 16 6 -3 37 2 71 11 43 12
63 14 68 6 4 -7 29 -3 80 15 69 24 75 24 87 9 11 -16 18 -16 94 8 44 14 88 26
96 26 99 0 170 217 114 348 -27 63 -92 123 -151 141 -56 17 -175 23 -222 11z
m214 -438 c-14 -25 -31 -39 -74 -57 -34 -14 -37 -14 -37 1 0 28 56 74 90 74
27 0 29 -2 21 -18z m-965 -69 c-20 -40 -64 -85 -76 -78 -13 8 24 80 47 94 34
20 45 14 29 -16z m-216 -29 c0 -2 -7 -16 -16 -29 -16 -25 -45 -32 -78 -19 -23
9 -20 24 10 55 26 27 28 27 55 13 16 -8 29 -17 29 -20z m-454 -94 c34 0 30
-23 -11 -59 -36 -32 -96 -43 -110 -21 -10 16 4 66 26 95 l21 25 25 -20 c14
-11 36 -20 49 -20z"/>
<path d="M3726 1965 c-22 -7 -59 -34 -83 -59 -24 -25 -53 -46 -63 -46 -23 0
-25 9 -8 45 17 38 -4 56 -34 28 -32 -29 -66 -45 -79 -37 -8 5 -8 9 1 14 6 4
10 20 8 36 l-3 28 -37 -33 c-25 -22 -38 -42 -38 -58 0 -14 -8 -37 -18 -51 -36
-52 -36 -57 -1 -34 18 13 56 34 82 48 l48 25 26 -21 c17 -13 42 -21 67 -21
115 -2 147 -1 216 6 99 10 239 75 196 91 -11 4 -41 -6 -78 -25 -81 -41 -92
-41 -84 4 11 57 1 75 -42 75 -20 -1 -55 -7 -76 -15z m76 -42 c-6 -10 -19 -26
-30 -36 -20 -19 -77 -39 -85 -30 -10 10 16 64 36 75 58 31 98 27 79 -9z"/>
<path d="M4130 1865 c-11 -13 -9 -15 15 -15 16 0 25 5 23 12 -7 19 -24 20 -38
3z"/>
</g>
</svg>
