<?xml version="1.0" standalone="no"?>
<!DOCTYPE svg PUBLIC "-//W3C//DTD SVG 20010904//EN"
 "http://www.w3.org/TR/2001/REC-SVG-20010904/DTD/svg10.dtd">
<svg version="1.0" xmlns="http://www.w3.org/2000/svg"
 width="669.000000pt" height="373.000000pt" viewBox="0 0 669.000000 373.000000"
 preserveAspectRatio="xMidYMid meet">

<g transform="translate(0.000000,373.000000) scale(0.100000,-0.100000)"
fill="#000000" stroke="none">
<path d="M0 1865 l0 -1865 3345 0 3345 0 0 1865 0 1865 -3345 0 -3345 0 0
-1865z m2516 1583 c44 -36 54 -50 54 -76 0 -39 -31 -128 -68 -193 -16 -30 -40
-74 -53 -99 -67 -128 -113 -188 -230 -297 -66 -62 -124 -113 -128 -113 -5 0
-39 -23 -76 -51 -82 -61 -180 -123 -254 -160 -46 -23 -151 -120 -151 -140 0
-3 -11 -19 -25 -35 -14 -16 -25 -32 -25 -36 0 -4 -24 -44 -52 -87 -29 -44 -75
-114 -101 -155 -27 -42 -76 -112 -110 -156 -34 -45 -72 -95 -84 -111 -12 -16
-35 -45 -52 -65 -17 -19 -31 -38 -31 -43 0 -4 -29 -41 -65 -82 -69 -78 -81
-106 -42 -95 12 3 67 11 122 16 55 6 111 13 125 15 14 3 119 12 234 20 114 8
279 26 365 39 86 13 177 27 202 31 34 4 54 14 76 38 31 32 167 296 158 306 -3
2 -27 -6 -53 -18 -45 -23 -219 -71 -254 -71 -9 0 -36 -27 -59 -61 -94 -134
-225 -148 -259 -28 -15 52 -2 98 43 146 22 24 44 43 49 43 6 0 27 13 48 30 37
29 106 47 126 33 15 -10 44 -68 44 -86 0 -30 25 -38 77 -27 150 34 162 39 282
118 36 23 72 42 81 42 9 0 25 7 36 15 42 32 101 7 129 -55 19 -42 19 -42 -5
-86 -12 -24 -21 -47 -18 -49 9 -9 112 15 120 28 4 6 8 19 8 29 0 9 23 45 51
81 37 46 66 72 101 88 54 25 75 21 93 -19 6 -13 19 -22 32 -22 32 0 36 -14 11
-45 -27 -35 -30 -98 -5 -103 24 -5 51 20 93 85 40 62 62 77 88 57 10 -7 23
-11 28 -8 4 3 24 0 43 -7 31 -11 39 -10 87 14 29 14 70 29 90 33 33 5 41 2 68
-24 34 -35 36 -45 15 -95 -9 -22 -11 -38 -5 -42 27 -17 170 91 170 129 0 19
58 96 73 96 7 0 18 -5 24 -11 14 -14 -14 -78 -50 -117 -17 -19 -19 -25 -8 -31
35 -22 146 47 186 115 37 63 85 91 85 49 0 -7 -16 -36 -35 -65 -39 -58 -45
-90 -17 -90 29 0 133 59 177 100 82 76 131 103 194 108 70 5 97 -14 107 -78 4
-24 12 -40 20 -40 7 0 32 26 55 57 53 72 83 183 76 286 -5 73 -45 167 -93 218
-58 61 -192 102 -334 103 -109 1 -166 -16 -243 -72 -43 -31 -112 -119 -130
-166 -12 -32 11 -95 41 -110 39 -19 124 -36 187 -36 58 0 74 -15 29 -26 -40
-10 -191 4 -224 21 -39 20 -78 70 -86 110 -19 104 154 268 323 305 107 24 284
5 374 -40 58 -29 129 -106 165 -178 26 -50 29 -67 28 -142 -1 -107 -15 -175
-52 -255 -39 -83 -85 -118 -155 -120 -33 0 -82 -12 -134 -33 -99 -39 -116 -39
-140 -6 l-19 25 -74 -35 c-81 -39 -143 -47 -158 -20 -8 14 -14 13 -53 -8 -32
-17 -61 -23 -109 -24 -52 0 -73 -5 -105 -25 -51 -33 -99 -49 -142 -49 -44 0
-52 22 -23 62 12 17 23 44 24 62 1 29 -2 31 -35 34 -46 4 -82 -25 -133 -107
-37 -58 -59 -77 -77 -65 -14 8 -11 25 15 76 42 86 3 84 -101 -5 -43 -37 -61
-46 -108 -52 -58 -7 -85 3 -85 31 0 19 -7 18 -59 -13 -57 -34 -142 -46 -311
-44 -138 2 -158 9 -146 56 5 19 12 25 24 21 62 -18 90 -18 111 3 27 27 28 77
2 91 -40 21 -68 12 -114 -40 -25 -27 -49 -50 -55 -50 -5 0 -20 -21 -34 -47
-13 -27 -50 -96 -81 -156 -31 -59 -57 -110 -57 -112 0 -9 53 -5 152 10 53 8
148 19 210 25 62 6 158 17 213 25 55 7 186 21 290 30 499 42 822 72 1235 115
52 5 192 15 310 21 118 6 274 15 345 20 420 28 958 20 1155 -17 108 -20 229
-82 277 -142 21 -26 44 -53 51 -60 29 -32 76 -109 94 -154 39 -104 58 -306 38
-408 -5 -25 -14 -71 -20 -104 -14 -74 -85 -227 -155 -331 -179 -267 -518 -478
-828 -517 -65 -8 -105 -8 -150 0 -34 6 -93 14 -132 17 -83 8 -147 33 -170 68
-47 72 -42 213 11 321 26 53 31 58 120 101 83 41 100 46 151 43 52 -3 59 -6
71 -31 20 -41 1 -79 -52 -106 -43 -21 -110 -28 -120 -13 -3 5 14 13 37 19 48
13 97 48 97 68 0 25 -38 38 -70 25 -16 -7 -38 -9 -49 -5 -21 6 -28 2 -121 -85
-64 -60 -88 -186 -53 -282 17 -49 43 -68 92 -68 15 0 70 -9 121 -20 124 -27
175 -25 300 9 276 76 448 183 642 399 52 57 83 105 133 206 74 149 95 227 102
372 5 116 -14 237 -51 319 -49 106 -159 229 -250 279 -58 31 -85 39 -236 67
-75 14 -743 20 -940 8 -382 -23 -485 -30 -685 -48 -121 -12 -242 -23 -270 -26
-27 -3 -86 -7 -130 -10 -44 -3 -145 -12 -225 -20 -80 -8 -219 -22 -310 -30
-91 -8 -212 -19 -270 -25 -58 -6 -159 -15 -225 -20 -272 -23 -464 -45 -665
-76 -93 -14 -96 -15 -136 -59 -23 -24 -56 -66 -73 -92 -33 -50 -58 -84 -102
-137 -14 -17 -51 -65 -81 -106 -87 -118 -223 -244 -302 -281 -91 -43 -165 -44
-208 -2 -96 91 -98 234 -3 328 30 30 59 49 96 59 49 15 54 15 83 -2 49 -28 44
-92 -6 -92 -17 0 -19 5 -13 30 6 28 5 30 -25 30 -37 0 -96 -29 -127 -62 -49
-52 -57 -138 -20 -209 38 -72 92 -86 191 -49 93 35 231 177 418 429 15 20 39
56 54 81 15 25 37 53 48 62 11 9 17 20 13 24 -4 5 -94 -4 -200 -19 -106 -15
-275 -34 -377 -42 -309 -25 -493 -46 -530 -61 -19 -8 -62 -41 -95 -73 -106
-102 -239 -217 -284 -247 -135 -89 -268 -164 -291 -164 -34 0 -66 34 -86 92
-15 44 -14 49 6 94 51 117 125 199 215 240 55 25 227 59 345 69 41 4 89 11
106 16 30 9 138 125 209 224 17 23 45 59 62 81 107 129 243 314 243 330 0 10
116 193 154 243 49 64 40 68 -82 35 -92 -26 -174 -28 -274 -9 -209 40 -274 71
-336 164 -70 105 -92 275 -53 413 43 156 203 324 407 427 111 56 256 102 289
92 10 -3 65 -8 152 -13 25 -2 49 -10 60 -22 17 -18 17 -18 -17 -12 -144 27
-165 28 -250 11 -99 -20 -176 -53 -280 -120 -154 -100 -284 -250 -325 -374
-14 -43 -17 -75 -12 -155 9 -177 69 -283 185 -327 146 -54 353 -62 507 -19
112 31 129 42 176 113 59 86 153 210 174 227 9 8 39 46 66 85 138 197 170 242
205 284 12 14 30 42 40 61 38 69 147 220 181 251 25 21 43 29 60 26 13 -2 26
0 29 4 8 13 43 11 60 -3z m2770 -1134 c32 -9 44 -44 33 -94 -12 -52 -6 -70 21
-70 25 0 112 43 158 77 37 28 66 27 69 -2 3 -16 -16 -29 -95 -67 -110 -53
-156 -63 -192 -45 -21 11 -31 10 -68 -6 -24 -10 -68 -21 -98 -24 -46 -5 -60
-2 -83 15 -26 19 -31 20 -70 6 -52 -18 -85 -10 -111 25 l-19 28 -67 -22 c-50
-16 -79 -33 -109 -63 -40 -41 -75 -55 -75 -29 0 7 16 29 36 48 26 25 34 40 31
58 -7 34 5 61 46 104 35 38 71 48 80 23 9 -22 -3 -55 -18 -50 -19 8 -55 -14
-55 -31 0 -18 26 -20 34 -2 3 9 8 7 15 -5 10 -15 14 -15 51 3 22 11 47 31 56
44 15 23 52 34 67 19 3 -4 -3 -24 -13 -45 -22 -42 -18 -65 11 -74 27 -9 49 6
111 77 48 54 64 65 114 80 33 10 70 19 84 22 14 2 27 4 30 5 3 0 15 -2 26 -5z
m512 -166 c4 -22 -44 -36 -61 -19 -9 10 -7 16 8 27 24 18 49 14 53 -8z"/>
<path d="M2435 3410 c-32 -13 -118 -110 -163 -182 -23 -37 -42 -71 -42 -76 0
-5 -9 -17 -20 -27 -11 -10 -20 -23 -20 -29 0 -6 -17 -33 -37 -58 -21 -26 -65
-84 -98 -129 -33 -45 -93 -122 -132 -170 -40 -48 -88 -113 -108 -143 -19 -30
-39 -57 -45 -61 -13 -8 -13 -35 0 -35 5 0 56 31 112 68 57 38 123 81 148 97
25 15 68 51 96 79 27 28 77 76 111 106 61 56 177 216 203 280 8 19 31 68 52
108 21 40 38 86 38 101 0 51 -51 89 -95 71z"/>
<path d="M4255 2153 c-28 -7 -95 -73 -95 -94 0 -29 17 -31 70 -8 52 22 108 76
93 89 -12 12 -46 18 -68 13z"/>
<path d="M2843 2045 c-23 -16 -73 -99 -73 -121 0 -25 35 -15 68 19 18 18 32
38 32 43 0 6 9 19 20 29 11 10 20 24 20 32 0 18 -40 17 -67 -2z"/>
<path d="M1916 1954 c-9 -25 -7 -72 4 -79 6 -3 19 -3 30 0 26 8 27 56 2 78
-23 21 -28 21 -36 1z"/>
<path d="M1860 1916 c0 -9 7 -16 16 -16 17 0 14 22 -4 28 -7 2 -12 -3 -12 -12z"/>
<path d="M1750 1850 c-26 -33 -31 -47 -28 -82 2 -36 8 -45 31 -56 25 -12 35
-12 73 3 57 22 123 97 104 120 -7 8 -28 15 -46 15 -22 0 -40 7 -51 20 -26 30
-48 25 -83 -20z"/>
<path d="M735 1369 c-110 -11 -269 -45 -313 -68 -45 -23 -116 -94 -149 -149
-29 -48 -30 -113 -2 -158 31 -51 40 -49 205 63 149 100 364 285 364 312 0 5
-8 9 -17 8 -10 -1 -49 -5 -88 -8z"/>
<path d="M5150 2248 c-75 -52 -90 -108 -28 -108 59 0 158 80 144 115 -9 23
-77 19 -116 -7z"/>
</g>
</svg>
