<?xml version="1.0" standalone="no"?>
<!DOCTYPE svg PUBLIC "-//W3C//DTD SVG 20010904//EN"
 "http://www.w3.org/TR/2001/REC-SVG-20010904/DTD/svg10.dtd">
<svg version="1.0" xmlns="http://www.w3.org/2000/svg"
 width="669.000000pt" height="373.000000pt" viewBox="0 0 669.000000 373.000000"
 preserveAspectRatio="xMidYMid meet">

<g transform="translate(0.000000,373.000000) scale(0.100000,-0.100000)"
fill="#000000" stroke="none">
<path d="M2470 3457 c-14 -5 -35 -9 -46 -8 -12 1 -37 -11 -57 -29 -34 -30
-143 -181 -180 -249 -17 -31 -73 -108 -88 -121 -3 -3 -27 -36 -52 -75 -79
-117 -146 -208 -181 -245 -38 -41 -105 -128 -165 -217 -47 -71 -64 -82 -176
-113 -154 -43 -361 -35 -507 19 -116 44 -176 150 -185 327 -5 80 -2 112 12
155 41 125 169 272 326 374 102 66 179 100 275 119 80 17 121 15 254 -10 34
-6 34 -6 17 12 -11 12 -34 20 -60 21 -23 1 -67 5 -97 8 -30 3 -59 6 -65 6 -23
2 -119 -22 -168 -42 -206 -83 -373 -210 -466 -356 -96 -153 -96 -388 2 -533
48 -73 125 -122 217 -141 30 -6 86 -18 124 -26 76 -17 181 -13 269 11 121 33
130 29 81 -35 -37 -49 -154 -232 -154 -242 0 -8 -55 -90 -107 -159 -81 -107
-119 -156 -144 -183 -15 -16 -40 -48 -55 -71 -16 -22 -62 -80 -103 -127 -82
-96 -94 -102 -211 -112 -124 -10 -290 -43 -344 -68 -91 -42 -165 -124 -216
-240 -18 -40 -19 -53 -10 -86 14 -54 55 -101 87 -101 36 0 156 68 303 171 47
33 168 139 280 244 36 34 81 67 100 73 40 13 231 34 525 57 110 9 259 25 330
36 189 30 245 34 245 20 0 -6 -7 -14 -15 -18 -9 -3 -25 -22 -36 -42 -54 -100
-231 -321 -336 -420 -95 -91 -166 -131 -233 -133 -97 -3 -163 140 -112 242 22
46 103 100 149 100 33 0 34 -1 28 -30 -6 -25 -4 -30 13 -30 50 0 55 64 6 92
-29 17 -34 17 -83 2 -37 -10 -66 -29 -96 -59 -95 -94 -93 -237 3 -328 43 -42
117 -41 208 2 82 38 211 161 318 299 114 150 124 164 161 218 20 28 53 72 75
97 36 40 47 46 102 56 145 25 459 61 703 81 72 6 173 15 225 20 52 5 169 16
260 25 91 8 233 21 315 30 83 8 184 17 225 20 41 2 98 7 125 10 28 2 151 14
275 25 205 19 309 26 690 49 197 12 865 6 940 -8 151 -28 178 -36 236 -67 91
-50 201 -173 250 -279 54 -121 67 -318 31 -485 -26 -117 -131 -319 -215 -412
-192 -214 -368 -324 -642 -399 -125 -34 -176 -36 -300 -9 -51 11 -106 20 -121
20 -49 0 -75 19 -92 68 -35 96 -11 222 53 282 93 87 99 91 123 85 12 -3 35 -1
51 4 31 12 66 0 66 -24 0 -20 -49 -55 -97 -68 -23 -6 -40 -14 -37 -19 10 -15
77 -8 120 13 53 27 72 65 52 106 -12 25 -19 28 -71 31 -51 3 -68 -2 -151 -43
-88 -43 -94 -48 -119 -98 -39 -81 -53 -163 -39 -238 24 -130 49 -142 384 -176
93 -10 223 20 393 91 147 61 290 161 429 303 100 102 234 340 255 454 6 30 15
79 22 109 14 66 6 224 -16 325 -20 95 -52 155 -133 255 -61 76 -77 90 -152
128 -106 53 -177 66 -430 83 -200 12 -616 8 -890 -10 -74 -5 -229 -14 -345
-20 -115 -7 -253 -16 -305 -21 -433 -45 -741 -73 -1235 -115 -104 -9 -217 -20
-250 -26 -33 -5 -125 -16 -205 -24 -80 -8 -198 -22 -262 -31 -65 -9 -124 -14
-133 -10 -12 4 -5 25 42 113 31 59 68 129 81 156 14 26 29 47 34 47 6 0 30 22
55 50 34 38 52 50 73 50 57 0 80 -60 39 -101 -21 -21 -49 -21 -111 -3 -12 4
-19 -2 -24 -21 -12 -47 8 -54 146 -56 169 -2 254 10 311 44 52 31 59 32 59 13
0 -28 27 -38 85 -31 47 6 65 15 108 52 59 50 103 76 117 68 4 -3 -3 -32 -18
-65 -17 -41 -22 -64 -15 -71 17 -17 40 1 79 62 51 82 87 111 133 107 33 -3 36
-5 35 -34 -1 -18 -12 -45 -24 -62 -29 -40 -21 -62 23 -62 43 0 91 16 142 49
32 20 53 25 105 25 48 1 77 7 109 24 39 21 45 22 53 8 15 -28 79 -19 158 20
l73 37 19 -27 c25 -34 41 -33 141 6 52 21 101 33 134 33 70 2 116 37 154 119
38 82 54 154 54 256 0 75 -4 92 -30 144 -36 72 -106 147 -164 176 -91 45 -267
65 -374 41 -171 -39 -342 -201 -323 -306 8 -40 46 -90 86 -110 33 -17 184 -31
224 -21 45 11 29 26 -29 26 -63 0 -148 17 -187 36 -30 15 -53 78 -41 110 18
47 87 135 130 166 76 55 132 72 242 72 143 0 277 -41 335 -103 48 -51 88 -145
93 -218 7 -103 -23 -214 -76 -286 -23 -31 -48 -57 -55 -57 -8 0 -16 16 -20 40
-10 64 -37 83 -107 78 -63 -5 -112 -32 -194 -108 -44 -41 -148 -100 -177 -100
-28 0 -22 32 17 90 37 54 42 74 24 85 -14 9 -46 -21 -75 -71 -39 -67 -150
-135 -185 -113 -11 6 -9 12 8 31 36 39 64 103 50 117 -6 6 -17 11 -24 11 -15
0 -73 -77 -73 -96 0 -24 -62 -85 -111 -110 -27 -13 -51 -24 -55 -24 -3 0 -4
14 0 30 3 17 9 43 12 58 5 24 0 33 -27 56 -39 33 -73 30 -157 -11 -48 -24 -56
-25 -87 -14 -19 7 -39 10 -43 7 -5 -3 -18 1 -28 8 -26 20 -48 5 -88 -57 -42
-65 -69 -90 -93 -85 -25 5 -22 68 5 103 25 32 21 45 -14 45 -13 0 -24 6 -24
13 0 18 -32 47 -51 47 -8 0 -33 -11 -56 -23 -45 -23 -143 -137 -143 -165 0
-31 -15 -42 -70 -52 -29 -6 -55 -8 -57 -6 -2 2 5 21 16 42 26 48 26 55 2 102
-29 56 -87 78 -127 47 -10 -8 -26 -15 -34 -15 -9 0 -45 -19 -81 -42 -120 -79
-132 -84 -282 -118 -52 -11 -77 -3 -77 27 0 18 -29 76 -44 86 -20 14 -89 -4
-126 -33 -21 -17 -42 -30 -47 -30 -5 0 -26 -17 -46 -38 -47 -48 -62 -97 -47
-152 16 -58 41 -80 92 -80 59 0 116 37 167 109 23 34 50 61 59 61 35 0 209 48
254 71 26 12 50 21 53 18 9 -10 -133 -284 -162 -311 -23 -22 -44 -30 -108 -38
-44 -6 -134 -20 -200 -30 -66 -11 -214 -27 -330 -35 -115 -8 -221 -17 -235
-20 -14 -2 -70 -9 -125 -15 -55 -5 -110 -13 -122 -16 -38 -11 -27 16 37 89 33
38 67 80 74 95 8 15 28 40 45 56 17 17 31 35 31 42 0 6 7 18 16 25 33 27 143
183 269 380 22 35 49 77 60 95 71 111 148 200 186 213 39 14 188 106 273 170
38 28 72 51 77 51 4 0 62 51 128 113 117 109 163 169 230 297 13 25 37 69 53
99 37 65 68 154 68 193 0 26 -7 35 -60 82 -11 10 -21 11 -40 3z m43 -69 c27
-32 21 -65 -34 -178 -60 -124 -49 -105 -126 -222 -35 -51 -88 -115 -120 -143
-31 -27 -80 -73 -108 -101 -27 -28 -70 -64 -95 -79 -25 -16 -91 -59 -148 -97
-56 -37 -107 -68 -112 -68 -13 0 -13 27 0 35 6 4 27 32 46 63 20 31 58 82 84
112 26 30 82 102 126 160 43 58 89 119 102 135 33 45 102 146 102 151 0 16 92
148 134 192 73 77 109 86 149 40z m1810 -1248 c15 -13 -41 -67 -93 -89 -53
-23 -70 -21 -70 8 0 21 67 87 95 94 22 5 56 -1 68 -13z m-1413 -93 c0 -8 -9
-22 -20 -32 -11 -10 -20 -23 -20 -29 0 -5 -14 -25 -32 -43 -32 -33 -68 -44
-68 -21 0 24 43 99 67 118 29 23 73 27 73 7z m-958 -94 c25 -22 24 -70 -2 -78
-11 -3 -24 -3 -30 0 -17 10 -10 95 8 95 3 0 14 -7 24 -17z m-64 -41 c2 -7 -3
-12 -12 -12 -9 0 -16 7 -16 16 0 17 22 14 28 -4z m-58 -42 c13 -11 37 -20 55
-20 18 0 38 -7 45 -15 10 -12 6 -22 -20 -55 -51 -65 -134 -94 -174 -61 -28 23
-21 91 15 134 35 42 47 45 79 17z m-990 -501 c0 -27 -215 -212 -364 -312 -165
-112 -174 -114 -205 -63 -25 41 -27 98 -3 148 22 49 105 134 155 159 43 23
203 57 312 68 39 3 78 7 88 8 9 1 17 -3 17 -8z"/>
<path d="M5230 2314 c-14 -2 -51 -12 -84 -22 -50 -15 -66 -26 -114 -80 -62
-71 -84 -86 -111 -77 -29 9 -33 32 -11 74 10 21 16 41 13 45 -15 15 -52 4 -67
-19 -9 -13 -34 -33 -56 -44 -35 -17 -41 -17 -49 -4 -6 11 -10 12 -15 4 -10
-16 -36 -14 -36 4 0 17 36 39 55 31 15 -5 27 28 18 50 -9 25 -45 15 -80 -23
-41 -43 -53 -70 -46 -104 3 -18 -5 -33 -31 -58 -20 -19 -36 -41 -36 -48 0 -26
35 -12 75 29 30 30 59 47 109 63 l67 22 20 -29 c26 -36 55 -43 108 -24 41 14
45 13 72 -6 23 -17 37 -20 81 -15 29 3 73 14 99 25 40 17 47 18 65 5 29 -21
85 -8 196 45 69 33 97 52 98 65 0 23 -28 34 -49 19 -53 -38 -138 -84 -164 -89
-35 -7 -65 21 -46 43 13 16 16 91 4 103 -13 13 -54 20 -85 15z m36 -58 c15
-38 -83 -116 -146 -116 -60 0 -44 57 30 108 38 26 107 30 116 8z"/>
<path d="M5745 2156 c-15 -11 -17 -18 -9 -26 18 -19 59 -8 59 15 0 25 -24 30
-50 11z"/>
</g>
</svg>
